<svg xmlns="http://www.w3.org/2000/svg" width="24" height="24" fill="none" viewBox="0 0 24 24"><path fill="#fff" d="M0 0h24v24H0z"/><g filter="url(#filter0_d_10499_3389)"><path fill="#fff" d="m2 22 1.407-5.135a9.893 9.893 0 0 1-1.324-4.955C2.086 6.446 6.533 2 11.997 2a9.853 9.853 0 0 1 7.013 2.907 9.849 9.849 0 0 1 2.9 7.01c-.002 5.465-4.45 9.911-9.913 9.911h-.004a9.907 9.907 0 0 1-4.738-1.206L2 22Z"/><path fill="url(#paint0_linear_10499_3389)" d="M12 3.674c-4.545 0-8.242 3.695-8.243 8.237a8.217 8.217 0 0 0 1.26 4.383l.196.312-.833 3.04 3.119-.818.3.178a8.23 8.23 0 0 0 4.195 1.148h.003c4.541 0 8.238-3.695 8.24-8.237a8.185 8.185 0 0 0-2.412-5.827A8.186 8.186 0 0 0 12 3.674Z"/><path fill="#fff" fill-rule="evenodd" d="M9.519 7.767c-.186-.412-.381-.42-.557-.428l-.475-.006a.91.91 0 0 0-.66.31c-.228.248-.868.847-.868 2.066 0 1.219.888 2.396 1.012 2.562.123.165 1.713 2.746 4.231 3.739 2.092.825 2.518.66 2.973.62.454-.042 1.465-.6 1.671-1.178.207-.579.207-1.074.145-1.178-.062-.103-.227-.165-.475-.289-.248-.124-1.466-.723-1.693-.806-.227-.082-.392-.124-.557.124-.165.248-.64.806-.784.971-.145.166-.289.186-.537.063-.248-.124-1.046-.386-1.992-1.23-.736-.656-1.233-1.467-1.378-1.715-.145-.248-.015-.382.109-.505.111-.112.248-.29.372-.434.124-.145.165-.248.247-.413.082-.165.041-.31-.02-.434-.063-.124-.544-1.35-.764-1.839Z" clip-rule="evenodd"/></g><defs><linearGradient id="paint0_linear_10499_3389" x1="11.829" x2="11.912" y1="4.663" y2="18.747" gradientUnits="userSpaceOnUse"><stop stop-color="#57D163"/><stop offset="1" stop-color="#23B33A"/></linearGradient><filter id="filter0_d_10499_3389" width="21.911" height="22" x="1" y="1" color-interpolation-filters="sRGB" filterUnits="userSpaceOnUse"><feFlood flood-opacity="0" result="BackgroundImageFix"/><feColorMatrix in="SourceAlpha" result="hardAlpha" type="matrix" values="0 0 0 0 0 0 0 0 0 0 0 0 0 0 0 0 0 0 127 0"/><feOffset/><feGaussianBlur stdDeviation=".5"/><feComposite in2="hardAlpha" operator="out"/><feColorMatrix type="matrix" values="0 0 0 0 0.141176 0 0 0 0 0.152941 0 0 0 0 0.172549 0 0 0 0.3 0"/><feBlend in2="BackgroundImageFix" mode="normal" result="effect1_dropShadow_10499_3389"/><feBlend in="SourceGraphic" in2="effect1_dropShadow_10499_3389" mode="normal" result="shape"/></filter></defs></svg>